<mxfile host="65bd71144e">
    <diagram id="-ANipx4XFc9IfE_KnRMD" name="Page-1">
        <mxGraphModel dx="1222" dy="563" grid="0" gridSize="10" guides="1" tooltips="1" connect="1" arrows="1" fold="1" page="1" pageScale="1" pageWidth="850" pageHeight="1100" background="#1E1924" math="0" shadow="0">
            <root>
                <mxCell id="0"/>
                <mxCell id="1" parent="0"/>
                <mxCell id="149" value="Post" style="shape=table;startSize=30;container=1;collapsible=1;childLayout=tableLayout;fixedRows=1;rowLines=0;fontStyle=1;align=center;resizeLast=1;fontFamily=Helvetica;labelBackgroundColor=default;strokeColor=#B3B3B3;" parent="1" vertex="1">
                    <mxGeometry x="280" y="100" width="150" height="180" as="geometry"/>
                </mxCell>
                <mxCell id="150" value="" style="shape=tableRow;horizontal=0;startSize=0;swimlaneHead=0;swimlaneBody=0;fillColor=none;collapsible=0;dropTarget=0;points=[[0,0.5],[1,0.5]];portConstraint=eastwest;top=0;left=0;right=0;bottom=1;strokeColor=#828282;fontFamily=Helvetica;fontColor=#ABABAB;" parent="149" vertex="1">
                    <mxGeometry y="30" width="150" height="30" as="geometry"/>
                </mxCell>
                <mxCell id="151" value="PK, AI" style="shape=partialRectangle;connectable=0;fillColor=none;top=0;left=0;bottom=0;right=0;fontStyle=1;overflow=hidden;strokeColor=#828282;fontFamily=Helvetica;fontColor=#ABABAB;" parent="150" vertex="1">
                    <mxGeometry width="50" height="30" as="geometry">
                        <mxRectangle width="50" height="30" as="alternateBounds"/>
                    </mxGeometry>
                </mxCell>
                <mxCell id="152" value="id" style="shape=partialRectangle;connectable=0;fillColor=none;top=0;left=0;bottom=0;right=0;align=left;spacingLeft=6;fontStyle=5;overflow=hidden;strokeColor=#828282;fontFamily=Helvetica;fontColor=#ABABAB;" parent="150" vertex="1">
                    <mxGeometry x="50" width="100" height="30" as="geometry">
                        <mxRectangle width="100" height="30" as="alternateBounds"/>
                    </mxGeometry>
                </mxCell>
                <mxCell id="313" value="" style="shape=tableRow;horizontal=0;startSize=0;swimlaneHead=0;swimlaneBody=0;fillColor=none;collapsible=0;dropTarget=0;points=[[0,0.5],[1,0.5]];portConstraint=eastwest;top=0;left=0;right=0;bottom=0;strokeColor=#828282;fontFamily=Helvetica;fontColor=#ABABAB;" parent="149" vertex="1">
                    <mxGeometry y="60" width="150" height="20" as="geometry"/>
                </mxCell>
                <mxCell id="314" value="FK" style="shape=partialRectangle;connectable=0;fillColor=none;top=0;left=0;bottom=0;right=0;editable=1;overflow=hidden;strokeColor=#828282;fontFamily=Helvetica;fontColor=#ABABAB;" parent="313" vertex="1">
                    <mxGeometry width="50" height="20" as="geometry">
                        <mxRectangle width="50" height="20" as="alternateBounds"/>
                    </mxGeometry>
                </mxCell>
                <mxCell id="315" value="User_Id" style="shape=partialRectangle;connectable=0;fillColor=none;top=0;left=0;bottom=0;right=0;align=left;spacingLeft=6;overflow=hidden;strokeColor=#828282;fontFamily=Helvetica;fontColor=#ABABAB;" parent="313" vertex="1">
                    <mxGeometry x="50" width="100" height="20" as="geometry">
                        <mxRectangle width="100" height="20" as="alternateBounds"/>
                    </mxGeometry>
                </mxCell>
                <mxCell id="385" value="" style="shape=tableRow;horizontal=0;startSize=0;swimlaneHead=0;swimlaneBody=0;fillColor=none;collapsible=0;dropTarget=0;points=[[0,0.5],[1,0.5]];portConstraint=eastwest;top=0;left=0;right=0;bottom=0;strokeColor=#828282;fontFamily=Helvetica;fontColor=#ABABAB;" parent="149" vertex="1">
                    <mxGeometry y="80" width="150" height="20" as="geometry"/>
                </mxCell>
                <mxCell id="386" value="FK" style="shape=partialRectangle;connectable=0;fillColor=none;top=0;left=0;bottom=0;right=0;editable=1;overflow=hidden;strokeColor=#828282;fontFamily=Helvetica;fontColor=#ABABAB;" parent="385" vertex="1">
                    <mxGeometry width="50" height="20" as="geometry">
                        <mxRectangle width="50" height="20" as="alternateBounds"/>
                    </mxGeometry>
                </mxCell>
                <mxCell id="387" value="Media_Id" style="shape=partialRectangle;connectable=0;fillColor=none;top=0;left=0;bottom=0;right=0;align=left;spacingLeft=6;overflow=hidden;strokeColor=#828282;fontFamily=Helvetica;fontColor=#ABABAB;" parent="385" vertex="1">
                    <mxGeometry x="50" width="100" height="20" as="geometry">
                        <mxRectangle width="100" height="20" as="alternateBounds"/>
                    </mxGeometry>
                </mxCell>
                <mxCell id="316" value="" style="shape=tableRow;horizontal=0;startSize=0;swimlaneHead=0;swimlaneBody=0;fillColor=none;collapsible=0;dropTarget=0;points=[[0,0.5],[1,0.5]];portConstraint=eastwest;top=0;left=0;right=0;bottom=0;strokeColor=#828282;fontFamily=Helvetica;fontColor=#ABABAB;" parent="149" vertex="1">
                    <mxGeometry y="100" width="150" height="20" as="geometry"/>
                </mxCell>
                <mxCell id="317" value="" style="shape=partialRectangle;connectable=0;fillColor=none;top=0;left=0;bottom=0;right=0;editable=1;overflow=hidden;strokeColor=#828282;fontFamily=Helvetica;fontColor=#ABABAB;" parent="316" vertex="1">
                    <mxGeometry width="50" height="20" as="geometry">
                        <mxRectangle width="50" height="20" as="alternateBounds"/>
                    </mxGeometry>
                </mxCell>
                <mxCell id="318" value="Title" style="shape=partialRectangle;connectable=0;fillColor=none;top=0;left=0;bottom=0;right=0;align=left;spacingLeft=6;overflow=hidden;strokeColor=#828282;fontFamily=Helvetica;fontColor=#ABABAB;" parent="316" vertex="1">
                    <mxGeometry x="50" width="100" height="20" as="geometry">
                        <mxRectangle width="100" height="20" as="alternateBounds"/>
                    </mxGeometry>
                </mxCell>
                <mxCell id="319" value="" style="shape=tableRow;horizontal=0;startSize=0;swimlaneHead=0;swimlaneBody=0;fillColor=none;collapsible=0;dropTarget=0;points=[[0,0.5],[1,0.5]];portConstraint=eastwest;top=0;left=0;right=0;bottom=0;strokeColor=#828282;fontFamily=Helvetica;fontColor=#ABABAB;" parent="149" vertex="1">
                    <mxGeometry y="120" width="150" height="20" as="geometry"/>
                </mxCell>
                <mxCell id="320" value="" style="shape=partialRectangle;connectable=0;fillColor=none;top=0;left=0;bottom=0;right=0;editable=1;overflow=hidden;strokeColor=#828282;fontFamily=Helvetica;fontColor=#ABABAB;" parent="319" vertex="1">
                    <mxGeometry width="50" height="20" as="geometry">
                        <mxRectangle width="50" height="20" as="alternateBounds"/>
                    </mxGeometry>
                </mxCell>
                <mxCell id="321" value="Description" style="shape=partialRectangle;connectable=0;fillColor=none;top=0;left=0;bottom=0;right=0;align=left;spacingLeft=6;overflow=hidden;strokeColor=#828282;fontFamily=Helvetica;fontColor=#ABABAB;" parent="319" vertex="1">
                    <mxGeometry x="50" width="100" height="20" as="geometry">
                        <mxRectangle width="100" height="20" as="alternateBounds"/>
                    </mxGeometry>
                </mxCell>
                <mxCell id="322" value="" style="shape=tableRow;horizontal=0;startSize=0;swimlaneHead=0;swimlaneBody=0;fillColor=none;collapsible=0;dropTarget=0;points=[[0,0.5],[1,0.5]];portConstraint=eastwest;top=0;left=0;right=0;bottom=0;strokeColor=#828282;fontFamily=Helvetica;fontColor=#ABABAB;" parent="149" vertex="1">
                    <mxGeometry y="140" width="150" height="20" as="geometry"/>
                </mxCell>
                <mxCell id="323" value="" style="shape=partialRectangle;connectable=0;fillColor=none;top=0;left=0;bottom=0;right=0;editable=1;overflow=hidden;strokeColor=#828282;fontFamily=Helvetica;fontColor=#ABABAB;" parent="322" vertex="1">
                    <mxGeometry width="50" height="20" as="geometry">
                        <mxRectangle width="50" height="20" as="alternateBounds"/>
                    </mxGeometry>
                </mxCell>
                <mxCell id="324" value="Create_Date" style="shape=partialRectangle;connectable=0;fillColor=none;top=0;left=0;bottom=0;right=0;align=left;spacingLeft=6;overflow=hidden;strokeColor=#828282;fontFamily=Helvetica;fontColor=#ABABAB;" parent="322" vertex="1">
                    <mxGeometry x="50" width="100" height="20" as="geometry">
                        <mxRectangle width="100" height="20" as="alternateBounds"/>
                    </mxGeometry>
                </mxCell>
                <mxCell id="153" value="" style="shape=tableRow;horizontal=0;startSize=0;swimlaneHead=0;swimlaneBody=0;fillColor=none;collapsible=0;dropTarget=0;points=[[0,0.5],[1,0.5]];portConstraint=eastwest;top=0;left=0;right=0;bottom=0;strokeColor=#828282;fontFamily=Helvetica;fontColor=#ABABAB;" parent="149" vertex="1">
                    <mxGeometry y="160" width="150" height="20" as="geometry"/>
                </mxCell>
                <mxCell id="154" value="" style="shape=partialRectangle;connectable=0;fillColor=none;top=0;left=0;bottom=0;right=0;editable=1;overflow=hidden;strokeColor=#828282;fontFamily=Helvetica;fontColor=#ABABAB;" parent="153" vertex="1">
                    <mxGeometry width="50" height="20" as="geometry">
                        <mxRectangle width="50" height="20" as="alternateBounds"/>
                    </mxGeometry>
                </mxCell>
                <mxCell id="155" value="Modified_Date" style="shape=partialRectangle;connectable=0;fillColor=none;top=0;left=0;bottom=0;right=0;align=left;spacingLeft=6;overflow=hidden;strokeColor=#828282;fontFamily=Helvetica;fontColor=#ABABAB;" parent="153" vertex="1">
                    <mxGeometry x="50" width="100" height="20" as="geometry">
                        <mxRectangle width="100" height="20" as="alternateBounds"/>
                    </mxGeometry>
                </mxCell>
                <mxCell id="156" value="" style="edgeStyle=entityRelationEdgeStyle;fontSize=12;html=1;endArrow=ERoneToMany;entryX=1;entryY=0.75;entryDx=0;entryDy=0;startArrow=none;exitX=0.996;exitY=0.068;exitDx=0;exitDy=0;exitPerimeter=0;strokeColor=#828282;fontFamily=Helvetica;fontColor=#ABABAB;" parent="1" source="259" target="258" edge="1">
                    <mxGeometry width="100" height="100" relative="1" as="geometry">
                        <mxPoint x="240" y="70" as="sourcePoint"/>
                        <mxPoint x="277.1500000000001" y="142.40999999999997" as="targetPoint"/>
                    </mxGeometry>
                </mxCell>
                <mxCell id="196" value="&lt;font style=&quot;font-size: 25px;&quot;&gt;*&lt;/font&gt;" style="text;strokeColor=none;align=center;fillColor=none;html=1;verticalAlign=middle;whiteSpace=wrap;rounded=0;fontFamily=Helvetica;fontColor=#ABABAB;" parent="1" vertex="1">
                    <mxGeometry x="390" y="437" width="20" height="35" as="geometry"/>
                </mxCell>
                <mxCell id="197" value="&lt;font style=&quot;font-size: 25px;&quot;&gt;*&lt;/font&gt;" style="text;strokeColor=none;align=center;fillColor=none;html=1;verticalAlign=middle;whiteSpace=wrap;rounded=0;fontFamily=Helvetica;fontColor=#ABABAB;" parent="1" vertex="1">
                    <mxGeometry x="480" y="125" width="20" height="20" as="geometry"/>
                </mxCell>
                <mxCell id="198" value="&lt;font style=&quot;font-size: 13px;&quot;&gt;1&lt;/font&gt;" style="text;strokeColor=none;align=center;fillColor=none;html=1;verticalAlign=middle;whiteSpace=wrap;rounded=0;fontFamily=Helvetica;fontColor=#ABABAB;" parent="1" vertex="1">
                    <mxGeometry x="190" y="120" width="20" height="30" as="geometry"/>
                </mxCell>
                <mxCell id="206" value="Media" style="shape=table;startSize=30;container=1;collapsible=1;childLayout=tableLayout;fixedRows=1;rowLines=0;fontStyle=1;align=center;resizeLast=1;fontFamily=Helvetica;labelBackgroundColor=default;strokeColor=#B3B3B3;" parent="1" vertex="1">
                    <mxGeometry x="305" y="455" width="128" height="180" as="geometry"/>
                </mxCell>
                <mxCell id="207" value="" style="shape=tableRow;horizontal=0;startSize=0;swimlaneHead=0;swimlaneBody=0;fillColor=none;collapsible=0;dropTarget=0;points=[[0,0.5],[1,0.5]];portConstraint=eastwest;top=0;left=0;right=0;bottom=1;strokeColor=#828282;fontFamily=Helvetica;fontColor=#ABABAB;" parent="206" vertex="1">
                    <mxGeometry y="30" width="128" height="30" as="geometry"/>
                </mxCell>
                <mxCell id="208" value="PK, AI" style="shape=partialRectangle;connectable=0;fillColor=none;top=0;left=0;bottom=0;right=0;fontStyle=1;overflow=hidden;strokeColor=#828282;fontFamily=Helvetica;fontColor=#ABABAB;" parent="207" vertex="1">
                    <mxGeometry width="50" height="30" as="geometry">
                        <mxRectangle width="50" height="30" as="alternateBounds"/>
                    </mxGeometry>
                </mxCell>
                <mxCell id="209" value="id" style="shape=partialRectangle;connectable=0;fillColor=none;top=0;left=0;bottom=0;right=0;align=left;spacingLeft=6;fontStyle=5;overflow=hidden;strokeColor=#828282;fontFamily=Helvetica;fontColor=#ABABAB;" parent="207" vertex="1">
                    <mxGeometry x="50" width="78" height="30" as="geometry">
                        <mxRectangle width="78" height="30" as="alternateBounds"/>
                    </mxGeometry>
                </mxCell>
                <mxCell id="210" value="" style="shape=tableRow;horizontal=0;startSize=0;swimlaneHead=0;swimlaneBody=0;fillColor=none;collapsible=0;dropTarget=0;points=[[0,0.5],[1,0.5]];portConstraint=eastwest;top=0;left=0;right=0;bottom=0;strokeColor=#828282;fontFamily=Helvetica;fontColor=#ABABAB;" parent="206" vertex="1">
                    <mxGeometry y="60" width="128" height="30" as="geometry"/>
                </mxCell>
                <mxCell id="211" value="FK" style="shape=partialRectangle;connectable=0;fillColor=none;top=0;left=0;bottom=0;right=0;editable=1;overflow=hidden;strokeColor=#828282;fontFamily=Helvetica;fontColor=#ABABAB;" parent="210" vertex="1">
                    <mxGeometry width="50" height="30" as="geometry">
                        <mxRectangle width="50" height="30" as="alternateBounds"/>
                    </mxGeometry>
                </mxCell>
                <mxCell id="212" value="Post_Id" style="shape=partialRectangle;connectable=0;fillColor=none;top=0;left=0;bottom=0;right=0;align=left;spacingLeft=6;overflow=hidden;strokeColor=#828282;fontFamily=Helvetica;fontColor=#ABABAB;" parent="210" vertex="1">
                    <mxGeometry x="50" width="78" height="30" as="geometry">
                        <mxRectangle width="78" height="30" as="alternateBounds"/>
                    </mxGeometry>
                </mxCell>
                <mxCell id="213" value="" style="shape=tableRow;horizontal=0;startSize=0;swimlaneHead=0;swimlaneBody=0;fillColor=none;collapsible=0;dropTarget=0;points=[[0,0.5],[1,0.5]];portConstraint=eastwest;top=0;left=0;right=0;bottom=0;strokeColor=#828282;fontFamily=Helvetica;fontColor=#ABABAB;" parent="206" vertex="1">
                    <mxGeometry y="90" width="128" height="30" as="geometry"/>
                </mxCell>
                <mxCell id="214" value="FK" style="shape=partialRectangle;connectable=0;fillColor=none;top=0;left=0;bottom=0;right=0;editable=1;overflow=hidden;strokeColor=#828282;fontFamily=Helvetica;fontColor=#ABABAB;" parent="213" vertex="1">
                    <mxGeometry width="50" height="30" as="geometry">
                        <mxRectangle width="50" height="30" as="alternateBounds"/>
                    </mxGeometry>
                </mxCell>
                <mxCell id="215" value="User_Id" style="shape=partialRectangle;connectable=0;fillColor=none;top=0;left=0;bottom=0;right=0;align=left;spacingLeft=6;overflow=hidden;strokeColor=#828282;fontFamily=Helvetica;fontColor=#ABABAB;" parent="213" vertex="1">
                    <mxGeometry x="50" width="78" height="30" as="geometry">
                        <mxRectangle width="78" height="30" as="alternateBounds"/>
                    </mxGeometry>
                </mxCell>
                <mxCell id="216" value="" style="shape=tableRow;horizontal=0;startSize=0;swimlaneHead=0;swimlaneBody=0;fillColor=none;collapsible=0;dropTarget=0;points=[[0,0.5],[1,0.5]];portConstraint=eastwest;top=0;left=0;right=0;bottom=0;strokeColor=#828282;fontFamily=Helvetica;fontColor=#ABABAB;" parent="206" vertex="1">
                    <mxGeometry y="120" width="128" height="30" as="geometry"/>
                </mxCell>
                <mxCell id="217" value="" style="shape=partialRectangle;connectable=0;fillColor=none;top=0;left=0;bottom=0;right=0;editable=1;overflow=hidden;strokeColor=#828282;fontFamily=Helvetica;fontColor=#ABABAB;" parent="216" vertex="1">
                    <mxGeometry width="50" height="30" as="geometry">
                        <mxRectangle width="50" height="30" as="alternateBounds"/>
                    </mxGeometry>
                </mxCell>
                <mxCell id="218" value="Format" style="shape=partialRectangle;connectable=0;fillColor=none;top=0;left=0;bottom=0;right=0;align=left;spacingLeft=6;overflow=hidden;strokeColor=#828282;fontFamily=Helvetica;fontColor=#ABABAB;" parent="216" vertex="1">
                    <mxGeometry x="50" width="78" height="30" as="geometry">
                        <mxRectangle width="78" height="30" as="alternateBounds"/>
                    </mxGeometry>
                </mxCell>
                <mxCell id="219" value="" style="shape=tableRow;horizontal=0;startSize=0;swimlaneHead=0;swimlaneBody=0;fillColor=none;collapsible=0;dropTarget=0;points=[[0,0.5],[1,0.5]];portConstraint=eastwest;top=0;left=0;right=0;bottom=0;strokeColor=#828282;fontFamily=Helvetica;fontColor=#ABABAB;" parent="206" vertex="1">
                    <mxGeometry y="150" width="128" height="30" as="geometry"/>
                </mxCell>
                <mxCell id="220" value="" style="shape=partialRectangle;connectable=0;fillColor=none;top=0;left=0;bottom=0;right=0;editable=1;overflow=hidden;strokeColor=#828282;fontFamily=Helvetica;fontColor=#ABABAB;" parent="219" vertex="1">
                    <mxGeometry width="50" height="30" as="geometry">
                        <mxRectangle width="50" height="30" as="alternateBounds"/>
                    </mxGeometry>
                </mxCell>
                <mxCell id="221" value="Path" style="shape=partialRectangle;connectable=0;fillColor=none;top=0;left=0;bottom=0;right=0;align=left;spacingLeft=6;overflow=hidden;strokeColor=#828282;fontFamily=Helvetica;fontColor=#ABABAB;" parent="219" vertex="1">
                    <mxGeometry x="50" width="78" height="30" as="geometry">
                        <mxRectangle width="78" height="30" as="alternateBounds"/>
                    </mxGeometry>
                </mxCell>
                <mxCell id="232" value="Like" style="shape=table;startSize=30;container=1;collapsible=1;childLayout=tableLayout;fixedRows=1;rowLines=0;fontStyle=1;align=center;resizeLast=1;fontFamily=Helvetica;labelBackgroundColor=default;strokeColor=#B3B3B3;" parent="1" vertex="1">
                    <mxGeometry x="500" y="100" width="130" height="120" as="geometry"/>
                </mxCell>
                <mxCell id="233" value="" style="shape=tableRow;horizontal=0;startSize=0;swimlaneHead=0;swimlaneBody=0;fillColor=none;collapsible=0;dropTarget=0;points=[[0,0.5],[1,0.5]];portConstraint=eastwest;top=0;left=0;right=0;bottom=1;strokeColor=#828282;fontFamily=Helvetica;fontColor=#ABABAB;" parent="232" vertex="1">
                    <mxGeometry y="30" width="130" height="30" as="geometry"/>
                </mxCell>
                <mxCell id="234" value="PK, AI" style="shape=partialRectangle;connectable=0;fillColor=none;top=0;left=0;bottom=0;right=0;fontStyle=1;overflow=hidden;strokeColor=#828282;fontFamily=Helvetica;fontColor=#ABABAB;" parent="233" vertex="1">
                    <mxGeometry width="50" height="30" as="geometry">
                        <mxRectangle width="50" height="30" as="alternateBounds"/>
                    </mxGeometry>
                </mxCell>
                <mxCell id="235" value="id" style="shape=partialRectangle;connectable=0;fillColor=none;top=0;left=0;bottom=0;right=0;align=left;spacingLeft=6;fontStyle=5;overflow=hidden;strokeColor=#828282;fontFamily=Helvetica;fontColor=#ABABAB;" parent="233" vertex="1">
                    <mxGeometry x="50" width="80" height="30" as="geometry">
                        <mxRectangle width="80" height="30" as="alternateBounds"/>
                    </mxGeometry>
                </mxCell>
                <mxCell id="236" value="" style="shape=tableRow;horizontal=0;startSize=0;swimlaneHead=0;swimlaneBody=0;fillColor=none;collapsible=0;dropTarget=0;points=[[0,0.5],[1,0.5]];portConstraint=eastwest;top=0;left=0;right=0;bottom=0;strokeColor=#828282;fontFamily=Helvetica;fontColor=#ABABAB;" parent="232" vertex="1">
                    <mxGeometry y="60" width="130" height="30" as="geometry"/>
                </mxCell>
                <mxCell id="237" value="FK" style="shape=partialRectangle;connectable=0;fillColor=none;top=0;left=0;bottom=0;right=0;editable=1;overflow=hidden;strokeColor=#828282;fontFamily=Helvetica;fontColor=#ABABAB;" parent="236" vertex="1">
                    <mxGeometry width="50" height="30" as="geometry">
                        <mxRectangle width="50" height="30" as="alternateBounds"/>
                    </mxGeometry>
                </mxCell>
                <mxCell id="238" value="Post_Id" style="shape=partialRectangle;connectable=0;fillColor=none;top=0;left=0;bottom=0;right=0;align=left;spacingLeft=6;overflow=hidden;strokeColor=#828282;fontFamily=Helvetica;fontColor=#ABABAB;" parent="236" vertex="1">
                    <mxGeometry x="50" width="80" height="30" as="geometry">
                        <mxRectangle width="80" height="30" as="alternateBounds"/>
                    </mxGeometry>
                </mxCell>
                <mxCell id="343" value="" style="shape=tableRow;horizontal=0;startSize=0;swimlaneHead=0;swimlaneBody=0;fillColor=none;collapsible=0;dropTarget=0;points=[[0,0.5],[1,0.5]];portConstraint=eastwest;top=0;left=0;right=0;bottom=0;strokeColor=#828282;fontFamily=Helvetica;fontColor=#ABABAB;" parent="232" vertex="1">
                    <mxGeometry y="90" width="130" height="30" as="geometry"/>
                </mxCell>
                <mxCell id="344" value="FK" style="shape=partialRectangle;connectable=0;fillColor=none;top=0;left=0;bottom=0;right=0;editable=1;overflow=hidden;strokeColor=#828282;fontFamily=Helvetica;fontColor=#ABABAB;" parent="343" vertex="1">
                    <mxGeometry width="50" height="30" as="geometry">
                        <mxRectangle width="50" height="30" as="alternateBounds"/>
                    </mxGeometry>
                </mxCell>
                <mxCell id="345" value="User_Id" style="shape=partialRectangle;connectable=0;fillColor=none;top=0;left=0;bottom=0;right=0;align=left;spacingLeft=6;overflow=hidden;strokeColor=#828282;fontFamily=Helvetica;fontColor=#ABABAB;" parent="343" vertex="1">
                    <mxGeometry x="50" width="80" height="30" as="geometry">
                        <mxRectangle width="80" height="30" as="alternateBounds"/>
                    </mxGeometry>
                </mxCell>
                <mxCell id="257" value="&lt;font style=&quot;font-size: 13px;&quot;&gt;1&lt;/font&gt;" style="text;strokeColor=none;align=center;fillColor=none;html=1;verticalAlign=middle;whiteSpace=wrap;rounded=0;fontFamily=Helvetica;fontColor=#ABABAB;" parent="1" vertex="1">
                    <mxGeometry x="430" y="120" width="20" height="20" as="geometry"/>
                </mxCell>
                <mxCell id="258" value="&lt;font style=&quot;font-size: 25px;&quot;&gt;*&lt;/font&gt;" style="text;strokeColor=none;align=center;fillColor=none;html=1;verticalAlign=middle;whiteSpace=wrap;rounded=0;fontFamily=Helvetica;fontColor=#ABABAB;" parent="1" vertex="1">
                    <mxGeometry x="260" y="165" width="20" height="30" as="geometry"/>
                </mxCell>
                <mxCell id="259" value="User" style="shape=table;startSize=30;container=1;collapsible=1;childLayout=tableLayout;fixedRows=1;rowLines=0;fontStyle=1;align=center;resizeLast=1;fontFamily=Helvetica;strokeColor=#B3B3B3;" parent="1" vertex="1">
                    <mxGeometry x="40" y="100" width="150" height="333" as="geometry"/>
                </mxCell>
                <mxCell id="260" value="" style="shape=tableRow;horizontal=0;startSize=0;swimlaneHead=0;swimlaneBody=0;fillColor=none;collapsible=0;dropTarget=0;points=[[0,0.5],[1,0.5]];portConstraint=eastwest;top=0;left=0;right=0;bottom=1;strokeColor=#828282;fontFamily=Helvetica;fontColor=#ABABAB;" parent="259" vertex="1">
                    <mxGeometry y="30" width="150" height="30" as="geometry"/>
                </mxCell>
                <mxCell id="261" value="PK, AI" style="shape=partialRectangle;connectable=0;fillColor=none;top=0;left=0;bottom=0;right=0;fontStyle=1;overflow=hidden;strokeColor=#828282;fontFamily=Helvetica;fontColor=#ABABAB;" parent="260" vertex="1">
                    <mxGeometry width="50" height="30" as="geometry">
                        <mxRectangle width="50" height="30" as="alternateBounds"/>
                    </mxGeometry>
                </mxCell>
                <mxCell id="262" value="id" style="shape=partialRectangle;connectable=0;fillColor=none;top=0;left=0;bottom=0;right=0;align=left;spacingLeft=6;fontStyle=5;overflow=hidden;strokeColor=#828282;fontFamily=Helvetica;fontColor=#ABABAB;" parent="260" vertex="1">
                    <mxGeometry x="50" width="100" height="30" as="geometry">
                        <mxRectangle width="100" height="30" as="alternateBounds"/>
                    </mxGeometry>
                </mxCell>
                <mxCell id="263" value="" style="shape=tableRow;horizontal=0;startSize=0;swimlaneHead=0;swimlaneBody=0;fillColor=none;collapsible=0;dropTarget=0;points=[[0,0.5],[1,0.5]];portConstraint=eastwest;top=0;left=0;right=0;bottom=0;strokeColor=#828282;fontFamily=Helvetica;fontColor=#ABABAB;" parent="259" vertex="1">
                    <mxGeometry y="60" width="150" height="40" as="geometry"/>
                </mxCell>
                <mxCell id="264" value="" style="shape=partialRectangle;connectable=0;fillColor=none;top=0;left=0;bottom=0;right=0;editable=1;overflow=hidden;strokeColor=#828282;fontFamily=Helvetica;fontColor=#ABABAB;" parent="263" vertex="1">
                    <mxGeometry width="50" height="40" as="geometry">
                        <mxRectangle width="50" height="40" as="alternateBounds"/>
                    </mxGeometry>
                </mxCell>
                <mxCell id="265" value="User_Name" style="shape=partialRectangle;connectable=0;fillColor=none;top=0;left=0;bottom=0;right=0;align=left;spacingLeft=6;overflow=hidden;strokeColor=#828282;fontFamily=Helvetica;fontColor=#ABABAB;" parent="263" vertex="1">
                    <mxGeometry x="50" width="100" height="40" as="geometry">
                        <mxRectangle width="100" height="40" as="alternateBounds"/>
                    </mxGeometry>
                </mxCell>
                <mxCell id="266" value="" style="shape=tableRow;horizontal=0;startSize=0;swimlaneHead=0;swimlaneBody=0;fillColor=none;collapsible=0;dropTarget=0;points=[[0,0.5],[1,0.5]];portConstraint=eastwest;top=0;left=0;right=0;bottom=0;strokeColor=#828282;fontFamily=Helvetica;fontColor=#ABABAB;" parent="259" vertex="1">
                    <mxGeometry y="100" width="150" height="30" as="geometry"/>
                </mxCell>
                <mxCell id="267" value="" style="shape=partialRectangle;connectable=0;fillColor=none;top=0;left=0;bottom=0;right=0;editable=1;overflow=hidden;strokeColor=#828282;fontFamily=Helvetica;fontColor=#ABABAB;" parent="266" vertex="1">
                    <mxGeometry width="50" height="30" as="geometry">
                        <mxRectangle width="50" height="30" as="alternateBounds"/>
                    </mxGeometry>
                </mxCell>
                <mxCell id="268" value="Name" style="shape=partialRectangle;connectable=0;fillColor=none;top=0;left=0;bottom=0;right=0;align=left;spacingLeft=6;overflow=hidden;strokeColor=#828282;fontFamily=Helvetica;fontColor=#ABABAB;" parent="266" vertex="1">
                    <mxGeometry x="50" width="100" height="30" as="geometry">
                        <mxRectangle width="100" height="30" as="alternateBounds"/>
                    </mxGeometry>
                </mxCell>
                <mxCell id="269" value="" style="shape=tableRow;horizontal=0;startSize=0;swimlaneHead=0;swimlaneBody=0;fillColor=none;collapsible=0;dropTarget=0;points=[[0,0.5],[1,0.5]];portConstraint=eastwest;top=0;left=0;right=0;bottom=0;strokeColor=#828282;fontFamily=Helvetica;fontColor=#ABABAB;" parent="259" vertex="1">
                    <mxGeometry y="130" width="150" height="30" as="geometry"/>
                </mxCell>
                <mxCell id="270" value="" style="shape=partialRectangle;connectable=0;fillColor=none;top=0;left=0;bottom=0;right=0;editable=1;overflow=hidden;strokeColor=#828282;fontFamily=Helvetica;fontColor=#ABABAB;" parent="269" vertex="1">
                    <mxGeometry width="50" height="30" as="geometry">
                        <mxRectangle width="50" height="30" as="alternateBounds"/>
                    </mxGeometry>
                </mxCell>
                <mxCell id="271" value="Lastname" style="shape=partialRectangle;connectable=0;fillColor=none;top=0;left=0;bottom=0;right=0;align=left;spacingLeft=6;overflow=hidden;strokeColor=#828282;fontFamily=Helvetica;fontColor=#ABABAB;" parent="269" vertex="1">
                    <mxGeometry x="50" width="100" height="30" as="geometry">
                        <mxRectangle width="100" height="30" as="alternateBounds"/>
                    </mxGeometry>
                </mxCell>
                <mxCell id="272" value="" style="shape=tableRow;horizontal=0;startSize=0;swimlaneHead=0;swimlaneBody=0;fillColor=none;collapsible=0;dropTarget=0;points=[[0,0.5],[1,0.5]];portConstraint=eastwest;top=0;left=0;right=0;bottom=0;strokeColor=#828282;fontFamily=Helvetica;fontColor=#ABABAB;" parent="259" vertex="1">
                    <mxGeometry y="160" width="150" height="30" as="geometry"/>
                </mxCell>
                <mxCell id="273" value="" style="shape=partialRectangle;connectable=0;fillColor=none;top=0;left=0;bottom=0;right=0;editable=1;overflow=hidden;strokeColor=#828282;fontFamily=Helvetica;fontColor=#ABABAB;" parent="272" vertex="1">
                    <mxGeometry width="50" height="30" as="geometry">
                        <mxRectangle width="50" height="30" as="alternateBounds"/>
                    </mxGeometry>
                </mxCell>
                <mxCell id="274" value="Password" style="shape=partialRectangle;connectable=0;fillColor=none;top=0;left=0;bottom=0;right=0;align=left;spacingLeft=6;overflow=hidden;strokeColor=#828282;fontFamily=Helvetica;fontColor=#ABABAB;" parent="272" vertex="1">
                    <mxGeometry x="50" width="100" height="30" as="geometry">
                        <mxRectangle width="100" height="30" as="alternateBounds"/>
                    </mxGeometry>
                </mxCell>
                <mxCell id="299" value="" style="shape=tableRow;horizontal=0;startSize=0;swimlaneHead=0;swimlaneBody=0;fillColor=none;collapsible=0;dropTarget=0;points=[[0,0.5],[1,0.5]];portConstraint=eastwest;top=0;left=0;right=0;bottom=0;strokeColor=#828282;fontFamily=Helvetica;fontColor=#ABABAB;" parent="259" vertex="1">
                    <mxGeometry y="190" width="150" height="30" as="geometry"/>
                </mxCell>
                <mxCell id="300" value="" style="shape=partialRectangle;connectable=0;fillColor=none;top=0;left=0;bottom=0;right=0;editable=1;overflow=hidden;strokeColor=#828282;fontFamily=Helvetica;fontColor=#ABABAB;" parent="299" vertex="1">
                    <mxGeometry width="50" height="30" as="geometry">
                        <mxRectangle width="50" height="30" as="alternateBounds"/>
                    </mxGeometry>
                </mxCell>
                <mxCell id="301" value="Email" style="shape=partialRectangle;connectable=0;fillColor=none;top=0;left=0;bottom=0;right=0;align=left;spacingLeft=6;overflow=hidden;strokeColor=#828282;fontFamily=Helvetica;fontColor=#ABABAB;" parent="299" vertex="1">
                    <mxGeometry x="50" width="100" height="30" as="geometry">
                        <mxRectangle width="100" height="30" as="alternateBounds"/>
                    </mxGeometry>
                </mxCell>
                <mxCell id="310" value="" style="shape=tableRow;horizontal=0;startSize=0;swimlaneHead=0;swimlaneBody=0;fillColor=none;collapsible=0;dropTarget=0;points=[[0,0.5],[1,0.5]];portConstraint=eastwest;top=0;left=0;right=0;bottom=0;strokeColor=#828282;fontFamily=Helvetica;fontColor=#ABABAB;" parent="259" vertex="1">
                    <mxGeometry y="220" width="150" height="30" as="geometry"/>
                </mxCell>
                <mxCell id="311" value="" style="shape=partialRectangle;connectable=0;fillColor=none;top=0;left=0;bottom=0;right=0;editable=1;overflow=hidden;strokeColor=#828282;fontFamily=Helvetica;fontColor=#ABABAB;" parent="310" vertex="1">
                    <mxGeometry width="50" height="30" as="geometry">
                        <mxRectangle width="50" height="30" as="alternateBounds"/>
                    </mxGeometry>
                </mxCell>
                <mxCell id="312" value="Phone" style="shape=partialRectangle;connectable=0;fillColor=none;top=0;left=0;bottom=0;right=0;align=left;spacingLeft=6;overflow=hidden;strokeColor=#828282;fontFamily=Helvetica;fontColor=#ABABAB;" parent="310" vertex="1">
                    <mxGeometry x="50" width="100" height="30" as="geometry">
                        <mxRectangle width="100" height="30" as="alternateBounds"/>
                    </mxGeometry>
                </mxCell>
                <mxCell id="302" value="" style="shape=tableRow;horizontal=0;startSize=0;swimlaneHead=0;swimlaneBody=0;fillColor=none;collapsible=0;dropTarget=0;points=[[0,0.5],[1,0.5]];portConstraint=eastwest;top=0;left=0;right=0;bottom=0;strokeColor=#828282;fontFamily=Helvetica;fontColor=#ABABAB;" parent="259" vertex="1">
                    <mxGeometry y="250" width="150" height="30" as="geometry"/>
                </mxCell>
                <mxCell id="303" value="" style="shape=partialRectangle;connectable=0;fillColor=none;top=0;left=0;bottom=0;right=0;editable=1;overflow=hidden;strokeColor=#828282;fontFamily=Helvetica;fontColor=#ABABAB;" parent="302" vertex="1">
                    <mxGeometry width="50" height="30" as="geometry">
                        <mxRectangle width="50" height="30" as="alternateBounds"/>
                    </mxGeometry>
                </mxCell>
                <mxCell id="304" value="Date_of_birth" style="shape=partialRectangle;connectable=0;fillColor=none;top=0;left=0;bottom=0;right=0;align=left;spacingLeft=6;overflow=hidden;strokeColor=#828282;fontFamily=Helvetica;fontColor=#ABABAB;" parent="302" vertex="1">
                    <mxGeometry x="50" width="100" height="30" as="geometry">
                        <mxRectangle width="100" height="30" as="alternateBounds"/>
                    </mxGeometry>
                </mxCell>
                <mxCell id="347" value="" style="shape=tableRow;horizontal=0;startSize=0;swimlaneHead=0;swimlaneBody=0;fillColor=none;collapsible=0;dropTarget=0;points=[[0,0.5],[1,0.5]];portConstraint=eastwest;top=0;left=0;right=0;bottom=0;strokeColor=#828282;fontFamily=Helvetica;fontColor=#ABABAB;" parent="259" vertex="1">
                    <mxGeometry y="280" width="150" height="30" as="geometry"/>
                </mxCell>
                <mxCell id="348" value="" style="shape=partialRectangle;connectable=0;fillColor=none;top=0;left=0;bottom=0;right=0;editable=1;overflow=hidden;strokeColor=#828282;fontFamily=Helvetica;fontColor=#ABABAB;" parent="347" vertex="1">
                    <mxGeometry width="50" height="30" as="geometry">
                        <mxRectangle width="50" height="30" as="alternateBounds"/>
                    </mxGeometry>
                </mxCell>
                <mxCell id="349" value="Created_Date" style="shape=partialRectangle;connectable=0;fillColor=none;top=0;left=0;bottom=0;right=0;align=left;spacingLeft=6;overflow=hidden;strokeColor=#828282;fontFamily=Helvetica;fontColor=#ABABAB;" parent="347" vertex="1">
                    <mxGeometry x="50" width="100" height="30" as="geometry">
                        <mxRectangle width="100" height="30" as="alternateBounds"/>
                    </mxGeometry>
                </mxCell>
                <mxCell id="275" value="" style="shape=tableRow;horizontal=0;startSize=0;swimlaneHead=0;swimlaneBody=0;fillColor=none;collapsible=0;dropTarget=0;points=[[0,0.5],[1,0.5]];portConstraint=eastwest;top=0;left=0;right=0;bottom=0;strokeColor=#828282;fontFamily=Helvetica;fontColor=#ABABAB;" parent="259" vertex="1">
                    <mxGeometry y="310" width="150" height="20" as="geometry"/>
                </mxCell>
                <mxCell id="276" value="" style="shape=partialRectangle;connectable=0;fillColor=none;top=0;left=0;bottom=0;right=0;editable=1;overflow=hidden;strokeColor=#828282;fontFamily=Helvetica;fontColor=#ABABAB;" parent="275" vertex="1">
                    <mxGeometry width="50" height="20" as="geometry">
                        <mxRectangle width="50" height="20" as="alternateBounds"/>
                    </mxGeometry>
                </mxCell>
                <mxCell id="277" value="Modified_Date" style="shape=partialRectangle;connectable=0;fillColor=none;top=0;left=0;bottom=0;right=0;align=left;spacingLeft=6;overflow=hidden;strokeColor=#828282;fontFamily=Helvetica;fontColor=#ABABAB;" parent="275" vertex="1">
                    <mxGeometry x="50" width="100" height="20" as="geometry">
                        <mxRectangle width="100" height="20" as="alternateBounds"/>
                    </mxGeometry>
                </mxCell>
                <mxCell id="278" value="Coments" style="shape=table;startSize=30;container=1;collapsible=1;childLayout=tableLayout;fixedRows=1;rowLines=0;fontStyle=1;align=center;resizeLast=1;labelBackgroundColor=none;strokeColor=#B3B3B3;" parent="1" vertex="1">
                    <mxGeometry x="700" y="100" width="140" height="150" as="geometry">
                        <mxRectangle x="700" y="100" width="86" height="30" as="alternateBounds"/>
                    </mxGeometry>
                </mxCell>
                <mxCell id="279" value="" style="shape=tableRow;horizontal=0;startSize=0;swimlaneHead=0;swimlaneBody=0;fillColor=none;collapsible=0;dropTarget=0;points=[[0,0.5],[1,0.5]];portConstraint=eastwest;top=0;left=0;right=0;bottom=1;" parent="278" vertex="1">
                    <mxGeometry y="30" width="140" height="30" as="geometry"/>
                </mxCell>
                <mxCell id="280" value="PK, AI" style="shape=partialRectangle;connectable=0;fillColor=none;top=0;left=0;bottom=0;right=0;fontStyle=1;overflow=hidden;strokeColor=#828282;fontFamily=Helvetica;fontColor=#ABABAB;" parent="279" vertex="1">
                    <mxGeometry width="50" height="30" as="geometry">
                        <mxRectangle width="50" height="30" as="alternateBounds"/>
                    </mxGeometry>
                </mxCell>
                <mxCell id="281" value="id" style="shape=partialRectangle;connectable=0;fillColor=none;top=0;left=0;bottom=0;right=0;align=left;spacingLeft=6;fontStyle=5;overflow=hidden;fontColor=#ABABAB;" parent="279" vertex="1">
                    <mxGeometry x="50" width="90" height="30" as="geometry">
                        <mxRectangle width="90" height="30" as="alternateBounds"/>
                    </mxGeometry>
                </mxCell>
                <mxCell id="282" value="" style="shape=tableRow;horizontal=0;startSize=0;swimlaneHead=0;swimlaneBody=0;fillColor=none;collapsible=0;dropTarget=0;points=[[0,0.5],[1,0.5]];portConstraint=eastwest;top=0;left=0;right=0;bottom=0;" parent="278" vertex="1">
                    <mxGeometry y="60" width="140" height="30" as="geometry"/>
                </mxCell>
                <mxCell id="283" value="FK" style="shape=partialRectangle;connectable=0;fillColor=none;top=0;left=0;bottom=0;right=0;editable=1;overflow=hidden;strokeColor=#828282;fontFamily=Helvetica;fontColor=#ABABAB;" parent="282" vertex="1">
                    <mxGeometry width="50" height="30" as="geometry">
                        <mxRectangle width="50" height="30" as="alternateBounds"/>
                    </mxGeometry>
                </mxCell>
                <mxCell id="284" value="Post_Id" style="shape=partialRectangle;connectable=0;fillColor=none;top=0;left=0;bottom=0;right=0;align=left;spacingLeft=6;overflow=hidden;fontColor=#ABABAB;" parent="282" vertex="1">
                    <mxGeometry x="50" width="90" height="30" as="geometry">
                        <mxRectangle width="90" height="30" as="alternateBounds"/>
                    </mxGeometry>
                </mxCell>
                <mxCell id="285" value="" style="shape=tableRow;horizontal=0;startSize=0;swimlaneHead=0;swimlaneBody=0;fillColor=none;collapsible=0;dropTarget=0;points=[[0,0.5],[1,0.5]];portConstraint=eastwest;top=0;left=0;right=0;bottom=0;" parent="278" vertex="1">
                    <mxGeometry y="90" width="140" height="30" as="geometry"/>
                </mxCell>
                <mxCell id="286" value="" style="shape=partialRectangle;connectable=0;fillColor=none;top=0;left=0;bottom=0;right=0;editable=1;overflow=hidden;strokeColor=#828282;fontFamily=Helvetica;fontColor=#ABABAB;" parent="285" vertex="1">
                    <mxGeometry width="50" height="30" as="geometry">
                        <mxRectangle width="50" height="30" as="alternateBounds"/>
                    </mxGeometry>
                </mxCell>
                <mxCell id="287" value="Created_Date" style="shape=partialRectangle;connectable=0;fillColor=none;top=0;left=0;bottom=0;right=0;align=left;spacingLeft=6;overflow=hidden;fontColor=#ABABAB;" parent="285" vertex="1">
                    <mxGeometry x="50" width="90" height="30" as="geometry">
                        <mxRectangle width="90" height="30" as="alternateBounds"/>
                    </mxGeometry>
                </mxCell>
                <mxCell id="360" value="" style="shape=tableRow;horizontal=0;startSize=0;swimlaneHead=0;swimlaneBody=0;fillColor=none;collapsible=0;dropTarget=0;points=[[0,0.5],[1,0.5]];portConstraint=eastwest;top=0;left=0;right=0;bottom=0;" parent="278" vertex="1">
                    <mxGeometry y="120" width="140" height="30" as="geometry"/>
                </mxCell>
                <mxCell id="361" value="" style="shape=partialRectangle;connectable=0;fillColor=none;top=0;left=0;bottom=0;right=0;editable=1;overflow=hidden;strokeColor=#828282;fontFamily=Helvetica;fontColor=#ABABAB;" parent="360" vertex="1">
                    <mxGeometry width="50" height="30" as="geometry">
                        <mxRectangle width="50" height="30" as="alternateBounds"/>
                    </mxGeometry>
                </mxCell>
                <mxCell id="362" value="Modified_Date" style="shape=partialRectangle;connectable=0;fillColor=none;top=0;left=0;bottom=0;right=0;align=left;spacingLeft=6;overflow=hidden;fontColor=#ABABAB;" parent="360" vertex="1">
                    <mxGeometry x="50" width="90" height="30" as="geometry">
                        <mxRectangle width="90" height="30" as="alternateBounds"/>
                    </mxGeometry>
                </mxCell>
                <mxCell id="325" value="Tags" style="shape=table;startSize=30;container=1;collapsible=1;childLayout=tableLayout;fixedRows=1;rowLines=0;fontStyle=1;align=center;resizeLast=1;fontFamily=Helvetica;labelBackgroundColor=default;strokeColor=#B3B3B3;" parent="1" vertex="1">
                    <mxGeometry x="660" y="470" width="130" height="120" as="geometry"/>
                </mxCell>
                <mxCell id="326" value="" style="shape=tableRow;horizontal=0;startSize=0;swimlaneHead=0;swimlaneBody=0;fillColor=none;collapsible=0;dropTarget=0;points=[[0,0.5],[1,0.5]];portConstraint=eastwest;top=0;left=0;right=0;bottom=1;strokeColor=#828282;fontFamily=Helvetica;fontColor=#ABABAB;" parent="325" vertex="1">
                    <mxGeometry y="30" width="130" height="30" as="geometry"/>
                </mxCell>
                <mxCell id="327" value="PK, AI" style="shape=partialRectangle;connectable=0;fillColor=none;top=0;left=0;bottom=0;right=0;fontStyle=1;overflow=hidden;strokeColor=#828282;fontFamily=Helvetica;fontColor=#ABABAB;" parent="326" vertex="1">
                    <mxGeometry width="50" height="30" as="geometry">
                        <mxRectangle width="50" height="30" as="alternateBounds"/>
                    </mxGeometry>
                </mxCell>
                <mxCell id="328" value="id" style="shape=partialRectangle;connectable=0;fillColor=none;top=0;left=0;bottom=0;right=0;align=left;spacingLeft=6;fontStyle=5;overflow=hidden;strokeColor=#828282;fontFamily=Helvetica;fontColor=#ABABAB;" parent="326" vertex="1">
                    <mxGeometry x="50" width="80" height="30" as="geometry">
                        <mxRectangle width="80" height="30" as="alternateBounds"/>
                    </mxGeometry>
                </mxCell>
                <mxCell id="329" value="" style="shape=tableRow;horizontal=0;startSize=0;swimlaneHead=0;swimlaneBody=0;fillColor=none;collapsible=0;dropTarget=0;points=[[0,0.5],[1,0.5]];portConstraint=eastwest;top=0;left=0;right=0;bottom=0;strokeColor=#828282;fontFamily=Helvetica;fontColor=#ABABAB;" parent="325" vertex="1">
                    <mxGeometry y="60" width="130" height="30" as="geometry"/>
                </mxCell>
                <mxCell id="330" value="" style="shape=partialRectangle;connectable=0;fillColor=none;top=0;left=0;bottom=0;right=0;editable=1;overflow=hidden;strokeColor=#828282;fontFamily=Helvetica;fontColor=#ABABAB;" parent="329" vertex="1">
                    <mxGeometry width="50" height="30" as="geometry">
                        <mxRectangle width="50" height="30" as="alternateBounds"/>
                    </mxGeometry>
                </mxCell>
                <mxCell id="331" value="Name_Tag" style="shape=partialRectangle;connectable=0;fillColor=none;top=0;left=0;bottom=0;right=0;align=left;spacingLeft=6;overflow=hidden;strokeColor=#828282;fontFamily=Helvetica;fontColor=#ABABAB;" parent="329" vertex="1">
                    <mxGeometry x="50" width="80" height="30" as="geometry">
                        <mxRectangle width="80" height="30" as="alternateBounds"/>
                    </mxGeometry>
                </mxCell>
                <mxCell id="357" value="" style="shape=tableRow;horizontal=0;startSize=0;swimlaneHead=0;swimlaneBody=0;fillColor=none;collapsible=0;dropTarget=0;points=[[0,0.5],[1,0.5]];portConstraint=eastwest;top=0;left=0;right=0;bottom=0;strokeColor=#828282;fontFamily=Helvetica;fontColor=#ABABAB;" parent="325" vertex="1">
                    <mxGeometry y="90" width="130" height="30" as="geometry"/>
                </mxCell>
                <mxCell id="358" value="FK" style="shape=partialRectangle;connectable=0;fillColor=none;top=0;left=0;bottom=0;right=0;editable=1;overflow=hidden;strokeColor=#828282;fontFamily=Helvetica;fontColor=#ABABAB;" parent="357" vertex="1">
                    <mxGeometry width="50" height="30" as="geometry">
                        <mxRectangle width="50" height="30" as="alternateBounds"/>
                    </mxGeometry>
                </mxCell>
                <mxCell id="359" value="Post_Id" style="shape=partialRectangle;connectable=0;fillColor=none;top=0;left=0;bottom=0;right=0;align=left;spacingLeft=6;overflow=hidden;strokeColor=#828282;fontFamily=Helvetica;fontColor=#ABABAB;" parent="357" vertex="1">
                    <mxGeometry x="50" width="80" height="30" as="geometry">
                        <mxRectangle width="80" height="30" as="alternateBounds"/>
                    </mxGeometry>
                </mxCell>
                <mxCell id="337" value="&lt;font style=&quot;font-size: 13px;&quot;&gt;1&lt;/font&gt;" style="text;strokeColor=none;align=center;fillColor=none;html=1;verticalAlign=middle;whiteSpace=wrap;rounded=0;fontFamily=Helvetica;fontColor=#ABABAB;" parent="1" vertex="1">
                    <mxGeometry x="380" y="80" width="20" height="20" as="geometry"/>
                </mxCell>
                <mxCell id="352" value="" style="fontSize=12;html=1;endArrow=ERoneToMany;strokeColor=#828282;fontFamily=Helvetica;fontColor=#ABABAB;" parent="1" edge="1">
                    <mxGeometry width="100" height="100" relative="1" as="geometry">
                        <mxPoint x="430" y="120" as="sourcePoint"/>
                        <mxPoint x="500" y="120" as="targetPoint"/>
                    </mxGeometry>
                </mxCell>
                <mxCell id="353" value="" style="edgeStyle=orthogonalEdgeStyle;fontSize=12;html=1;endArrow=ERoneToMany;exitX=0.82;exitY=0.005;exitDx=0;exitDy=0;exitPerimeter=0;entryX=-0.002;entryY=0.118;entryDx=0;entryDy=0;entryPerimeter=0;strokeColor=#828282;fontFamily=Helvetica;fontColor=#ABABAB;" parent="1" source="149" target="278" edge="1">
                    <mxGeometry width="100" height="100" relative="1" as="geometry">
                        <mxPoint x="420" y="70" as="sourcePoint"/>
                        <mxPoint x="790" y="60" as="targetPoint"/>
                        <Array as="points">
                            <mxPoint x="403" y="72"/>
                            <mxPoint x="660" y="72"/>
                            <mxPoint x="660" y="118"/>
                        </Array>
                    </mxGeometry>
                </mxCell>
                <mxCell id="354" value="&lt;font style=&quot;font-size: 25px;&quot;&gt;*&lt;/font&gt;" style="text;strokeColor=none;align=center;fillColor=none;html=1;verticalAlign=middle;whiteSpace=wrap;rounded=0;fontFamily=Helvetica;fontColor=#ABABAB;" parent="1" vertex="1">
                    <mxGeometry x="680" y="125" width="20" height="20" as="geometry"/>
                </mxCell>
                <mxCell id="363" value="" style="fontSize=12;html=1;endArrow=ERmany;startArrow=none;exitX=0.5;exitY=0;exitDx=0;exitDy=0;entryX=0.86;entryY=1.142;entryDx=0;entryDy=0;entryPerimeter=0;strokeColor=#B3B3B3;fontFamily=Helvetica;fontColor=#ABABAB;" parent="1" source="205" target="153" edge="1">
                    <mxGeometry width="100" height="100" relative="1" as="geometry">
                        <mxPoint x="320" y="370" as="sourcePoint"/>
                        <mxPoint x="260" y="270" as="targetPoint"/>
                    </mxGeometry>
                </mxCell>
                <mxCell id="364" value="&lt;font style=&quot;font-size: 25px;&quot;&gt;*&lt;/font&gt;" style="text;strokeColor=none;align=center;fillColor=none;html=1;verticalAlign=middle;whiteSpace=wrap;rounded=0;fontFamily=Helvetica;fontColor=#ABABAB;" parent="1" vertex="1">
                    <mxGeometry x="390" y="280" width="20" height="30" as="geometry"/>
                </mxCell>
                <mxCell id="388" value="" style="fontSize=12;html=1;endArrow=none;startArrow=ERmany;entryX=0.5;entryY=1;entryDx=0;entryDy=0;exitX=1;exitY=0.5;exitDx=0;exitDy=0;strokeColor=#B3B3B3;fontFamily=Helvetica;fontColor=#ABABAB;" parent="1" source="196" target="205" edge="1">
                    <mxGeometry width="100" height="100" relative="1" as="geometry">
                        <mxPoint x="295" y="510" as="sourcePoint"/>
                        <mxPoint x="317.04999999999995" y="281.5" as="targetPoint"/>
                    </mxGeometry>
                </mxCell>
                <mxCell id="205" value="Relationship" style="shape=rhombus;perimeter=rhombusPerimeter;whiteSpace=wrap;html=1;align=center;fontFamily=Helvetica;strokeColor=#B3B3B3;" parent="1" vertex="1">
                    <mxGeometry x="360" y="345" width="100" height="60" as="geometry"/>
                </mxCell>
                <mxCell id="389" value="Post_Media" style="swimlane;childLayout=stackLayout;horizontal=1;startSize=30;horizontalStack=0;rounded=1;fontSize=12;fontStyle=0;strokeWidth=2;resizeParent=0;resizeLast=1;shadow=0;dashed=0;align=center;fontFamily=Helvetica;labelBackgroundColor=default;strokeColor=#B3B3B3;" parent="1" vertex="1">
                    <mxGeometry x="249" y="338" width="99" height="90" as="geometry">
                        <mxRectangle x="249" y="338" width="98" height="30" as="alternateBounds"/>
                    </mxGeometry>
                </mxCell>
                <mxCell id="390" value="Id&#10;Media_Id&#10;Post_Id" style="align=left;strokeColor=#828282;fillColor=none;spacingLeft=4;fontSize=12;verticalAlign=top;resizable=0;rotatable=0;part=1;fontFamily=Helvetica;fontColor=#ABABAB;" parent="389" vertex="1">
                    <mxGeometry y="30" width="99" height="60" as="geometry"/>
                </mxCell>
                <mxCell id="393" value="&lt;font style=&quot;font-size: 25px;&quot;&gt;*&lt;/font&gt;" style="text;strokeColor=none;align=center;fillColor=none;html=1;verticalAlign=middle;whiteSpace=wrap;rounded=0;fontFamily=Helvetica;fontColor=#ABABAB;" parent="1" vertex="1">
                    <mxGeometry x="430" y="260" width="20" height="20" as="geometry"/>
                </mxCell>
                <mxCell id="395" value="" style="edgeStyle=orthogonalEdgeStyle;fontSize=12;html=1;endArrow=ERmany;startArrow=none;entryX=-0.008;entryY=0.124;entryDx=0;entryDy=0;entryPerimeter=0;exitX=0.5;exitY=1;exitDx=0;exitDy=0;curved=1;strokeColor=#B3B3B3;fontFamily=Helvetica;fontColor=#ABABAB;" parent="1" source="399" target="325" edge="1">
                    <mxGeometry width="100" height="100" relative="1" as="geometry">
                        <mxPoint x="430" y="265" as="sourcePoint"/>
                        <mxPoint x="530" y="165" as="targetPoint"/>
                    </mxGeometry>
                </mxCell>
                <mxCell id="396" value="&lt;font style=&quot;font-size: 25px;&quot;&gt;*&lt;/font&gt;" style="text;strokeColor=none;align=center;fillColor=none;html=1;verticalAlign=middle;whiteSpace=wrap;rounded=0;fontFamily=Helvetica;fontColor=#ABABAB;" parent="1" vertex="1">
                    <mxGeometry x="640" y="490" width="20" height="20" as="geometry"/>
                </mxCell>
                <mxCell id="397" value="Tags_Post" style="swimlane;childLayout=stackLayout;horizontal=1;startSize=30;horizontalStack=0;rounded=1;fontSize=12;fontStyle=0;strokeWidth=2;resizeParent=0;resizeLast=1;shadow=0;dashed=0;align=center;fontFamily=Helvetica;labelBackgroundColor=default;strokeColor=#B3B3B3;" parent="1" vertex="1">
                    <mxGeometry x="660" y="315" width="94" height="85" as="geometry"/>
                </mxCell>
                <mxCell id="398" value="Id&#10;Tags_Id&#10;Post_Id" style="align=left;strokeColor=#828282;fillColor=none;spacingLeft=4;fontSize=12;verticalAlign=top;resizable=0;rotatable=0;part=1;fontFamily=Helvetica;fontColor=#ABABAB;" parent="397" vertex="1">
                    <mxGeometry y="30" width="94" height="55" as="geometry"/>
                </mxCell>
                <mxCell id="400" value="" style="edgeStyle=orthogonalEdgeStyle;fontSize=12;html=1;endArrow=none;startArrow=ERmany;exitX=1;exitY=0.5;exitDx=0;exitDy=0;curved=1;strokeColor=#B3B3B3;fontFamily=Helvetica;fontColor=#ABABAB;" parent="1" source="322" target="399" edge="1">
                    <mxGeometry width="100" height="100" relative="1" as="geometry">
                        <mxPoint x="430" y="250" as="sourcePoint"/>
                        <mxPoint x="658.96" y="484.88" as="targetPoint"/>
                    </mxGeometry>
                </mxCell>
                <mxCell id="399" value="Relationship" style="shape=rhombus;perimeter=rhombusPerimeter;whiteSpace=wrap;html=1;align=center;fontSize=12;fontFamily=Helvetica;strokeColor=#B3B3B3;" parent="1" vertex="1">
                    <mxGeometry x="543" y="327.5" width="107" height="54.5" as="geometry"/>
                </mxCell>
            </root>
        </mxGraphModel>
    </diagram>
</mxfile>